<?xml version="1.0" encoding="UTF-8" standalone="no" ?>
<!DOCTYPE svg PUBLIC "-//W3C//DTD SVG 1.1//EN" "http://www.w3.org/Graphics/SVG/1.1/DTD/svg11.dtd">
<svg xmlns="http://www.w3.org/2000/svg" xmlns:xlink="http://www.w3.org/1999/xlink" version="1.1" width="1280" height="1024" viewBox="0 0 1280 1024" xml:space="preserve">
<desc>Created with Fabric.js 5.3.0</desc>
<defs>
</defs>
<g transform="matrix(1 0 0 1 640 512)" id="background-logo"  >
<rect style="stroke: none; stroke-width: 0; stroke-dasharray: none; stroke-linecap: butt; stroke-dashoffset: 0; stroke-linejoin: miter; stroke-miterlimit: 4; fill: rgb(255,255,255); fill-opacity: 0; fill-rule: nonzero; opacity: 1;"  paint-order="stroke"  x="-640" y="-512" rx="0" ry="0" width="1280" height="1024" />
</g>
<g transform="matrix(1.0824391815166419 0 0 1.0824391815166419 226.02538696537675 511.51811555365)" id="logo-logo"  >
<g style=""  paint-order="stroke"   >
		<g transform="matrix(1.50479616111449 0 0 -1.50479616111449 -21.83368942007462 39.75731649510942)"  >
<path style="stroke: none; stroke-width: 1; stroke-dasharray: none; stroke-linecap: butt; stroke-dashoffset: 0; stroke-linejoin: miter; stroke-miterlimit: 4; fill: rgb(73,54,54); fill-rule: nonzero; opacity: 1;"  paint-order="stroke"  transform=" translate(-25.904, -34.4095)" d="M 0 0 L 51.808 39.284 L 29.051 68.819 Z" stroke-linecap="round" />
</g>
		<g transform="matrix(1.50479616111449 0 0 -1.50479616111449 0.0004514388484153642 30.722219384545696)"  >
<path style="stroke: none; stroke-width: 1; stroke-dasharray: none; stroke-linecap: butt; stroke-dashoffset: 0; stroke-linejoin: miter; stroke-miterlimit: 4; fill: rgb(172,27,32); fill-rule: nonzero; opacity: 1;"  paint-order="stroke"  transform=" translate(40.4135, 40.4135)" d="M 0 0 L 0 -80.827 L -80.827 0 Z" stroke-linecap="round" />
</g>
		<g transform="matrix(1.50479616111449 0 0 -1.50479616111449 0.0004514388484153642 -50.90544837510984)"  >
<path style="stroke: none; stroke-width: 1; stroke-dasharray: none; stroke-linecap: butt; stroke-dashoffset: 0; stroke-linejoin: miter; stroke-miterlimit: 4; fill: rgb(172,27,32); fill-rule: nonzero; opacity: 1;"  paint-order="stroke"  transform=" translate(40.4135, -13.8315)" d="M 0 0 L -40.833 40.833 L -80.827 0 L -43.06 -13.17 Z" stroke-linecap="round" />
</g>
		<g transform="matrix(1.50479616111449 0 0 -1.50479616111449 0.0004514388484153642 30.722219384545696)"  >
<path style="stroke: none; stroke-width: 1; stroke-dasharray: none; stroke-linecap: butt; stroke-dashoffset: 0; stroke-linejoin: miter; stroke-miterlimit: 4; fill: rgb(207,32,38); fill-rule: nonzero; opacity: 1;"  paint-order="stroke"  transform=" translate(40.4135, 40.4135)" d="M 0 0 L -80.827 -80.827 L -80.827 0 Z" stroke-linecap="round" />
</g>
		<g transform="matrix(1.50479616111449 0 0 -1.50479616111449 -30.407115068408302 30.72236986416172)"  >
<path style="stroke: none; stroke-width: 1; stroke-dasharray: none; stroke-linecap: butt; stroke-dashoffset: 0; stroke-linejoin: miter; stroke-miterlimit: 4; fill: rgb(223,48,53); fill-rule: nonzero; opacity: 1;"  paint-order="stroke"  transform=" translate(20.207, 0)" d="M 0 0 L -40.414 40.414 L -40.414 -40.414 Z" stroke-linecap="round" />
</g>
		<g transform="matrix(1.50479616111449 0 0 -1.50479616111449 0.0004514388484153642 -34.63784947538164)"  >
<path style="stroke: none; stroke-width: 1; stroke-dasharray: none; stroke-linecap: butt; stroke-dashoffset: 0; stroke-linejoin: miter; stroke-miterlimit: 4; fill: rgb(73,54,54); fill-rule: nonzero; opacity: 1;"  paint-order="stroke"  transform=" translate(40.4135, -3.021)" d="M 0 0 L -80.827 0 L -74.90899999999999 6.042 z" stroke-linecap="round" />
</g>
		<g transform="matrix(1.50479616111449 0 0 -1.50479616111449 -30.407115068408302 4.381665461933096)"  >
<path style="stroke: none; stroke-width: 1; stroke-dasharray: none; stroke-linecap: butt; stroke-dashoffset: 0; stroke-linejoin: miter; stroke-miterlimit: 4; fill: rgb(172,27,32); fill-rule: nonzero; opacity: 1;"  paint-order="stroke"  transform=" translate(20.207, -17.5045)" d="M 0 0 L -40.414 40.414 L -5.314 -5.405000000000001 z" stroke-linecap="round" />
</g>
		<g transform="matrix(1.50479616111449 0 0 -1.50479616111449 30.407115068408302 4.495879490561748)"  >
<path style="stroke: none; stroke-width: 1; stroke-dasharray: none; stroke-linecap: butt; stroke-dashoffset: 0; stroke-linejoin: miter; stroke-miterlimit: 4; fill: rgb(154,24,28); fill-rule: nonzero; opacity: 1;"  paint-order="stroke"  transform=" translate(20.207, 22.985)" d="M 0 0 L -34.857 -45.97 L -40.414 -40.414 z" stroke-linecap="round" />
</g>
</g>
</g>
<g transform="matrix(1.9211538461538462 0 0 1.9211538461538462 518.2209292147753 507.7554973228807)" id="text-logo"  >
<g style=""  paint-order="stroke"   >
		<g transform="matrix(1 0 0 1 0 0)" id="text-logo-path-0"  >
<path style="stroke: none; stroke-width: 0; stroke-dasharray: none; stroke-linecap: butt; stroke-dashoffset: 0; stroke-linejoin: miter; stroke-miterlimit: 4; fill: rgb(203,37,38); fill-rule: nonzero; opacity: 1;"  paint-order="stroke"  transform=" translate(-95.01017717774673, 19.865)" d="M 17.5 0.46 Q 13.11 0.46 9.75 -1.31 Q 6.38 -3.08 4.53 -6.24 Q 2.68 -9.41 2.68 -13.57 L 2.68 -13.57 L 2.68 -26.33 Q 2.68 -30.5 4.53 -33.69 Q 6.38 -36.88 9.75 -38.62 Q 13.11 -40.36 17.5 -40.36 L 17.5 -40.36 Q 21.83 -40.36 25.17 -38.65 Q 28.5 -36.94 30.35 -34 Q 32.2 -31.07 32.2 -27.47 L 32.2 -27.47 L 32.2 -27.07 Q 32.2 -26.79 32.01 -26.59 Q 31.81 -26.39 31.52 -26.39 L 31.52 -26.39 L 24.85 -26.39 Q 24.57 -26.39 24.37 -26.59 Q 24.17 -26.79 24.17 -27.07 L 24.17 -27.07 L 24.17 -27.25 Q 24.17 -29.87 22.34 -31.66 Q 20.52 -33.46 17.5 -33.46 L 17.5 -33.46 Q 14.42 -33.46 12.57 -31.55 Q 10.72 -29.64 10.72 -26.56 L 10.72 -26.56 L 10.72 -13.34 Q 10.72 -10.26 12.71 -8.35 Q 14.71 -6.44 17.78 -6.44 L 17.78 -6.44 Q 20.75 -6.44 22.52 -8.01 Q 24.28 -9.58 24.28 -12.37 L 24.28 -12.37 L 24.28 -14.93 Q 24.28 -15.22 24 -15.22 L 24 -15.22 L 17.61 -15.22 Q 17.33 -15.22 17.13 -15.42 Q 16.93 -15.62 16.93 -15.9 L 16.93 -15.9 L 16.93 -21.15 Q 16.93 -21.43 17.13 -21.63 Q 17.33 -21.83 17.61 -21.83 L 17.61 -21.83 L 31.52 -21.83 Q 31.81 -21.83 32.01 -21.63 Q 32.2 -21.43 32.2 -21.15 L 32.2 -21.15 L 32.2 -13.62 Q 32.2 -9.29 30.38 -6.1 Q 28.56 -2.91 25.22 -1.23 Q 21.89 0.46 17.5 0.46 L 17.5 0.46 Z M 71.65 0 Q 71.08 0 70.85 -0.51 L 70.85 -0.51 L 63.73 -16.3 Q 63.61 -16.53 63.38 -16.53 L 63.38 -16.53 L 58.08 -16.53 Q 57.8 -16.53 57.8 -16.25 L 57.8 -16.25 L 57.8 -0.68 Q 57.8 -0.4 57.6 -0.2 Q 57.4 0 57.11 0 L 57.11 0 L 50.45 0 Q 50.16 0 49.96 -0.2 Q 49.76 -0.4 49.76 -0.68 L 49.76 -0.68 L 49.76 -39.22 Q 49.76 -39.5 49.96 -39.7 Q 50.16 -39.9 50.45 -39.9 L 50.45 -39.9 L 66.75 -39.9 Q 70.39 -39.9 73.16 -38.42 Q 75.92 -36.94 77.43 -34.2 Q 78.94 -31.46 78.94 -27.87 L 78.94 -27.87 Q 78.94 -24 77.01 -21.23 Q 75.07 -18.47 71.59 -17.33 L 71.59 -17.33 Q 71.31 -17.21 71.42 -16.93 L 71.42 -16.93 L 79.17 -0.8 Q 79.29 -0.57 79.29 -0.46 L 79.29 -0.46 Q 79.29 0 78.66 0 L 78.66 0 L 71.65 0 Z M 58.08 -33 Q 57.8 -33 57.8 -32.72 L 57.8 -32.72 L 57.8 -22.97 Q 57.8 -22.69 58.08 -22.69 L 58.08 -22.69 L 65.55 -22.69 Q 67.94 -22.69 69.45 -24.11 Q 70.97 -25.54 70.97 -27.82 L 70.97 -27.82 Q 70.97 -30.1 69.45 -31.55 Q 67.94 -33 65.55 -33 L 65.55 -33 L 58.08 -33 Z M 110.35 0.63 Q 105.91 0.63 102.51 -1.2 Q 99.12 -3.02 97.24 -6.3 Q 95.36 -9.58 95.36 -13.85 L 95.36 -13.85 L 95.36 -26.05 Q 95.36 -30.27 97.24 -33.52 Q 99.12 -36.77 102.51 -38.56 Q 105.91 -40.36 110.35 -40.36 L 110.35 -40.36 Q 114.86 -40.36 118.25 -38.56 Q 121.64 -36.77 123.52 -33.52 Q 125.4 -30.27 125.4 -26.05 L 125.4 -26.05 L 125.4 -13.85 Q 125.4 -9.58 123.52 -6.27 Q 121.64 -2.96 118.25 -1.17 Q 114.86 0.63 110.35 0.63 L 110.35 0.63 Z M 110.35 -6.27 Q 113.49 -6.27 115.43 -8.27 Q 117.36 -10.26 117.36 -13.57 L 117.36 -13.57 L 117.36 -26.11 Q 117.36 -29.41 115.45 -31.44 Q 113.54 -33.46 110.35 -33.46 L 110.35 -33.46 Q 107.22 -33.46 105.31 -31.44 Q 103.4 -29.41 103.4 -26.11 L 103.4 -26.11 L 103.4 -13.57 Q 103.4 -10.26 105.31 -8.27 Q 107.22 -6.27 110.35 -6.27 L 110.35 -6.27 Z M 150.94 0 Q 150.31 0 150.14 -0.57 L 150.14 -0.57 L 140.05 -39.16 L 139.99 -39.39 Q 139.99 -39.9 140.62 -39.9 L 140.62 -39.9 L 147.69 -39.9 Q 148.26 -39.9 148.43 -39.33 L 148.43 -39.33 L 153.84 -16.13 Q 153.9 -15.9 154.01 -15.9 Q 154.13 -15.9 154.19 -16.13 L 154.19 -16.13 L 159.43 -39.27 Q 159.6 -39.9 160.17 -39.9 L 160.17 -39.9 L 167.07 -39.9 Q 167.69 -39.9 167.87 -39.33 L 167.87 -39.33 L 173.56 -16.13 Q 173.62 -15.96 173.74 -15.93 Q 173.85 -15.9 173.91 -16.13 L 173.91 -16.13 L 179.15 -39.27 Q 179.32 -39.9 179.89 -39.9 L 179.89 -39.9 L 186.62 -39.9 Q 187.42 -39.9 187.25 -39.16 L 187.25 -39.16 L 177.9 -0.57 Q 177.73 0 177.1 0 L 177.1 0 L 170.32 0 Q 169.75 0 169.57 -0.57 L 169.57 -0.57 L 163.76 -25.25 Q 163.7 -25.48 163.59 -25.48 Q 163.48 -25.48 163.42 -25.25 L 163.42 -25.25 L 158 -0.63 Q 157.89 0 157.26 0 L 157.26 0 L 150.94 0 Z" stroke-linecap="round" />
</g>
</g>
</g>
<g transform="matrix(1.9211538461538462 0 0 1.9211538461538462 928.9278870571725 507.59123866903457)" id="tagline-0bae5ddd-4793-4109-b051-dc2c257cfc37-logo"  >
<g style=""  paint-order="stroke"   >
		<g transform="matrix(1 0 0 1 0 0)" id="tagline-0bae5ddd-4793-4109-b051-dc2c257cfc37-logo-path-0"  >
<path style="stroke: none; stroke-width: 0; stroke-dasharray: none; stroke-linecap: butt; stroke-dashoffset: 0; stroke-linejoin: miter; stroke-miterlimit: 4; fill: rgb(73,54,54); fill-rule: nonzero; opacity: 1;"  paint-order="stroke"  transform=" translate(-110.325, 19.95)" d="M 17.5 0.46 Q 13.05 0.46 9.69 -1.28 Q 6.33 -3.02 4.5 -6.16 Q 2.68 -9.29 2.68 -13.4 L 2.68 -13.4 L 2.68 -26.56 Q 2.68 -30.67 4.5 -33.8 Q 6.33 -36.94 9.69 -38.65 Q 13.05 -40.36 17.5 -40.36 L 17.5 -40.36 Q 21.89 -40.36 25.22 -38.73 Q 28.56 -37.11 30.41 -34.11 Q 32.26 -31.12 32.26 -27.19 L 32.26 -27.19 Q 32.26 -26.68 31.58 -26.56 L 31.58 -26.56 L 24.91 -26.16 L 24.8 -26.16 Q 24.23 -26.16 24.23 -26.79 L 24.23 -26.79 Q 24.23 -29.81 22.37 -31.64 Q 20.52 -33.46 17.5 -33.46 L 17.5 -33.46 Q 14.42 -33.46 12.57 -31.64 Q 10.72 -29.81 10.72 -26.79 L 10.72 -26.79 L 10.72 -13.05 Q 10.72 -10.09 12.57 -8.27 Q 14.42 -6.44 17.5 -6.44 L 17.5 -6.44 Q 20.52 -6.44 22.37 -8.27 Q 24.23 -10.09 24.23 -13.05 L 24.23 -13.05 Q 24.23 -13.68 24.91 -13.68 L 24.91 -13.68 L 31.58 -13.4 Q 31.86 -13.4 32.06 -13.22 Q 32.26 -13.05 32.26 -12.83 L 32.26 -12.83 Q 32.26 -8.89 30.41 -5.87 Q 28.56 -2.85 25.22 -1.2 Q 21.89 0.46 17.5 0.46 L 17.5 0.46 Z M 71.42 0 Q 70.85 0 70.62 -0.51 L 70.62 -0.51 L 63.5 -16.3 Q 63.38 -16.53 63.16 -16.53 L 63.16 -16.53 L 57.85 -16.53 Q 57.57 -16.53 57.57 -16.25 L 57.57 -16.25 L 57.57 -0.68 Q 57.57 -0.4 57.37 -0.2 Q 57.17 0 56.89 0 L 56.89 0 L 50.22 0 Q 49.93 0 49.73 -0.2 Q 49.53 -0.4 49.53 -0.68 L 49.53 -0.68 L 49.53 -39.22 Q 49.53 -39.5 49.73 -39.7 Q 49.93 -39.9 50.22 -39.9 L 50.22 -39.9 L 66.52 -39.9 Q 70.17 -39.9 72.93 -38.42 Q 75.7 -36.94 77.21 -34.2 Q 78.72 -31.46 78.72 -27.87 L 78.72 -27.87 Q 78.72 -24 76.78 -21.23 Q 74.84 -18.47 71.36 -17.33 L 71.36 -17.33 Q 71.08 -17.21 71.19 -16.93 L 71.19 -16.93 L 78.94 -0.8 Q 79.06 -0.57 79.06 -0.46 L 79.06 -0.46 Q 79.06 0 78.43 0 L 78.43 0 L 71.42 0 Z M 57.85 -33 Q 57.57 -33 57.57 -32.72 L 57.57 -32.72 L 57.57 -22.97 Q 57.57 -22.69 57.85 -22.69 L 57.85 -22.69 L 65.32 -22.69 Q 67.72 -22.69 69.23 -24.11 Q 70.74 -25.54 70.74 -27.82 L 70.74 -27.82 Q 70.74 -30.1 69.23 -31.55 Q 67.72 -33 65.32 -33 L 65.32 -33 L 57.85 -33 Z M 122.15 0 Q 121.58 0 121.41 -0.57 L 121.41 -0.57 L 119.7 -6.16 Q 119.59 -6.38 119.42 -6.38 L 119.42 -6.38 L 105.39 -6.38 Q 105.22 -6.38 105.11 -6.16 L 105.11 -6.16 L 103.46 -0.57 Q 103.28 0 102.71 0 L 102.71 0 L 95.48 0 Q 95.13 0 94.96 -0.2 Q 94.79 -0.4 94.91 -0.8 L 94.91 -0.8 L 107.22 -39.33 Q 107.39 -39.9 107.96 -39.9 L 107.96 -39.9 L 116.91 -39.9 Q 117.48 -39.9 117.65 -39.33 L 117.65 -39.33 L 129.96 -0.8 Q 130.02 -0.68 130.02 -0.51 L 130.02 -0.51 Q 130.02 0 129.39 0 L 129.39 0 L 122.15 0 Z M 107.16 -12.94 Q 107.1 -12.6 107.39 -12.6 L 107.39 -12.6 L 117.42 -12.6 Q 117.76 -12.6 117.65 -12.94 L 117.65 -12.94 L 112.52 -29.87 Q 112.46 -30.1 112.35 -30.07 Q 112.23 -30.04 112.18 -29.87 L 112.18 -29.87 L 107.16 -12.94 Z M 174.08 -33.69 Q 174.08 -33.4 173.88 -33.2 Q 173.68 -33 173.39 -33 L 173.39 -33 L 154.76 -33 Q 154.47 -33 154.47 -32.72 L 154.47 -32.72 L 154.47 -23.88 Q 154.47 -23.6 154.76 -23.6 L 154.76 -23.6 L 167.01 -23.6 Q 167.3 -23.6 167.49 -23.4 Q 167.69 -23.2 167.69 -22.91 L 167.69 -22.91 L 167.69 -17.39 Q 167.69 -17.1 167.49 -16.9 Q 167.3 -16.7 167.01 -16.7 L 167.01 -16.7 L 154.76 -16.7 Q 154.47 -16.7 154.47 -16.42 L 154.47 -16.42 L 154.47 -0.68 Q 154.47 -0.4 154.27 -0.2 Q 154.07 0 153.79 0 L 153.79 0 L 147.12 0 Q 146.83 0 146.63 -0.2 Q 146.43 -0.4 146.43 -0.68 L 146.43 -0.68 L 146.43 -39.22 Q 146.43 -39.5 146.63 -39.7 Q 146.83 -39.9 147.12 -39.9 L 147.12 -39.9 L 173.39 -39.9 Q 173.68 -39.9 173.88 -39.7 Q 174.08 -39.5 174.08 -39.22 L 174.08 -39.22 L 174.08 -33.69 Z M 217.28 -39.9 Q 217.57 -39.9 217.77 -39.7 Q 217.97 -39.5 217.97 -39.22 L 217.97 -39.22 L 217.97 -33.63 Q 217.97 -33.34 217.77 -33.15 Q 217.57 -32.95 217.28 -32.95 L 217.28 -32.95 L 207.08 -32.95 Q 206.8 -32.95 206.8 -32.66 L 206.8 -32.66 L 206.8 -0.68 Q 206.8 -0.4 206.6 -0.2 Q 206.4 0 206.11 0 L 206.11 0 L 199.44 0 Q 199.16 0 198.96 -0.2 Q 198.76 -0.4 198.76 -0.68 L 198.76 -0.68 L 198.76 -32.66 Q 198.76 -32.95 198.47 -32.95 L 198.47 -32.95 L 188.56 -32.95 Q 188.27 -32.95 188.07 -33.15 Q 187.87 -33.34 187.87 -33.63 L 187.87 -33.63 L 187.87 -39.22 Q 187.87 -39.5 188.07 -39.7 Q 188.27 -39.9 188.56 -39.9 L 188.56 -39.9 L 217.28 -39.9 Z" stroke-linecap="round" />
</g>
</g>
</g>
</svg>